<svg width="24" height="24" viewBox="0 0 24 24" fill="none" xmlns="http://www.w3.org/2000/svg">
<path d="M12 22C17.5228 22 22 17.5228 22 12C22 6.47715 17.5228 2 12 2C6.47715 2 2 6.47715 2 12C2 17.5228 6.47715 22 12 22Z" fill="#5A6B8B"/>
<path d="M8 9H16C16.552 9 17 8.552 17 8C17 7.448 16.552 7 16 7H8C7.448 7 7 7.448 7 8C7 8.552 7.448 9 8 9Z" fill="#D5DDE7"/>
<path d="M16 11H8C7.448 11 7 11.448 7 12C7 12.552 7.448 13 8 13H16C16.552 13 17 12.552 17 12C17 11.448 16.552 11 16 11Z" fill="#D5DDE7"/>
<path d="M16 15H8C7.448 15 7 15.448 7 16C7 16.552 7.448 17 8 17H16C16.552 17 17 16.552 17 16C17 15.448 16.552 15 16 15Z" fill="#D5DDE7"/>
</svg>
